<svg xmlns="http://www.w3.org/2000/svg" viewBox="0 0 32 32" id="Toilet--Streamline-Twemoji" height="32" width="32">
  <desc>
    Toilet Streamline Emoji: https://streamlinehq.com
  </desc>
  <path fill="#aab8c2" d="M23.11111111111111 16v1.7777777777777777H11.815999999999999c-0.7706666666666666 0 -1.631111111111111 0.7964444444444444 -1.9208888888888889 1.7777777777777777L6.746666666666666 30.22222222222222c-0.28977777777777775 0.9813333333333334 0.27199999999999996 1.7777777777777777 1.2533333333333332 1.7777777777777777h16c0.9813333333333334 0 1.7777777777777777 -0.7964444444444444 1.7777777777777777 -1.7777777777777777V21.333333333333332c0 -1.654222222222222 1.136 -3.0328888888888885 2.6666666666666665 -3.429333333333333V16h-5.333333333333333z" stroke-width="0.8889"></path>
  <path fill="#e1e8ed" d="M19.555555555555554 19.444444444444443C19.555555555555554 22.57422222222222 15.57511111111111 25.777777777777775 10.666666666666666 25.777777777777775c-4.909333333333333 0 -8.88888888888889 -3.2035555555555555 -8.88888888888889 -6.333333333333333C1.7777777777777777 17.77777777777778 2.518222222222222 17.77777777777778 10.666666666666666 17.77777777777778c8.147555555555556 0 8.88888888888889 0 8.88888888888889 1.6666666666666665zM22.22222222222222 16.88888888888889c0 0.4915555555555556 -0.4568888888888889 0.8888888888888888 -1.0222222222222221 0.8888888888888888H2.8C2.2355555555555555 17.77777777777778 1.7777777777777777 17.380444444444443 1.7777777777777777 16.88888888888889c0 -0.4915555555555556 0.4577777777777778 -0.8888888888888888 1.0222222222222221 -0.8888888888888888h18.4c0.5653333333333334 0 1.0222222222222221 0.3973333333333333 1.0222222222222221 0.8888888888888888z" stroke-width="0.8889"></path>
  <path fill="#99aab5" d="M16 14.222222222222221H5.333333333333333c-0.9813333333333334 0 -1.7777777777777777 0.7964444444444444 -1.7777777777777777 1.7777777777777777h14.222222222222221c0 -0.9813333333333334 -0.7964444444444444 -1.7777777777777777 -1.7777777777777777 -1.7777777777777777zm1.7777777777777777 -14.222222222222221v16c0.9813333333333334 0 1.7777777777777777 -0.895111111111111 1.7777777777777777 -2V2C19.555555555555554 0.895111111111111 18.75911111111111 0 17.77777777777778 0z" stroke-width="0.8889"></path>
  <path fill="#e1e8ed" d="M30.22222222222222 3.5555555555555554c0 -0.9813333333333334 -0.7964444444444444 -1.7777777777777777 -1.7777777777777777 -1.7777777777777777h-7.111111111111111c-0.9813333333333334 0 -1.7777777777777777 0.7964444444444444 -1.7777777777777777 1.7777777777777777v12.444444444444443c0 0.9813333333333334 0.7964444444444444 1.7777777777777777 1.7777777777777777 1.7777777777777777h7.111111111111111c0.9813333333333334 0 1.7777777777777777 -0.7964444444444444 1.7777777777777777 -1.7777777777777777V3.5555555555555554z" stroke-width="0.8889"></path>
  <path fill="#ccd6dd" d="M16 14.222222222222221a1.7777777777777777 1.7777777777777777 0 1 0 3.5555555555555554 0 1.7777777777777777 1.7777777777777777 0 1 0 -3.5555555555555554 0" stroke-width="0.8889"></path>
  <path fill="#ccd6dd" d="M19.555555555555554 3.5555555555555554h10.666666666666666v1.7777777777777777H19.555555555555554z" stroke-width="0.8889"></path>
  <path fill="#aab8c2" d="M22.22222222222222 18.666666666666664c0 0.4915555555555556 -0.3973333333333333 0.8888888888888888 -0.8888888888888888 0.8888888888888888H2.6666666666666665c-0.4906666666666667 0 -0.8888888888888888 -0.3973333333333333 -0.8888888888888888 -0.8888888888888888 0 -0.4915555555555556 0.3982222222222222 -0.8888888888888888 0.8888888888888888 -0.8888888888888888h18.666666666666664c0.4915555555555556 0 0.8888888888888888 0.3973333333333333 0.8888888888888888 0.8888888888888888z" stroke-width="0.8889"></path>
</svg>